<?xml version="1.0" encoding="UTF-8"?><svg id="Layer_1" xmlns="http://www.w3.org/2000/svg" viewBox="0 0 128 128"><defs><style>.cls-1{fill:#ff79da;}</style></defs><path class="cls-1" d="M63.08,117.34c-2.01-.49-3.53-1.76-5.05-3.08-14.87-12.92-29.73-25.85-44.64-38.72C6.36,69.47,1.94,62.01,.45,52.8-2.16,36.7,6.79,20.14,21.92,13.86c13.86-5.75,26.75-3.7,38.44,5.72,1.22,.98,2.38,2.05,3.67,3.15,.99-.86,1.96-1.69,2.93-2.54,7.17-6.33,15.55-9.54,25.11-9.44,17.99,.2,33.47,13.9,35.62,31.7,1.52,12.64-2.35,23.55-11.92,32.01-15.64,13.83-31.49,27.42-47.29,41.06-.97,.83-2.32,1.22-3.5,1.81h-1.89Z"/></svg>