<?xml version="1.0" encoding="UTF-8"?><svg id="Layer_1" xmlns="http://www.w3.org/2000/svg" viewBox="0 0 128 128"><defs><style>.cls-1{fill:#333;}</style></defs><path class="cls-1" d="M63.08,117.34c-2.01-.49-3.53-1.76-5.05-3.08-14.87-12.92-29.73-25.85-44.64-38.72C6.36,69.47,1.94,62.01,.45,52.8-2.16,36.7,6.79,20.14,21.92,13.86c13.86-5.75,26.75-3.7,38.44,5.72,1.22,.98,2.38,2.05,3.67,3.15,.99-.86,1.96-1.69,2.93-2.54,7.17-6.33,15.55-9.54,25.11-9.44,17.99,.2,33.47,13.9,35.62,31.7,1.52,12.64-2.35,23.55-11.92,32.01-15.64,13.83-31.49,27.42-47.29,41.06-.97,.83-2.32,1.22-3.5,1.81h-1.89Zm.94-16.75c.46-.35,.85-.65,1.24-.96,3.49-2.74,6.98-5.48,10.47-8.22,9.94-7.81,19.98-15.53,29.8-23.46,8.14-6.57,10.99-14.88,8.14-24.41-5.09-17.02-28.03-23.17-42.78-11.62-2.28,1.79-4.55,3.58-6.87,5.4-2.23-1.75-4.41-3.45-6.58-5.16-6.23-4.9-13.43-6.89-21.62-5.86-12.54,1.57-22.35,11.63-22.46,23.11-.07,7.43,2.95,13.68,9.15,18.57,12.56,9.92,25.18,19.79,37.77,29.68,1.23,.96,2.46,1.93,3.73,2.93Z"/></svg>